<svg xmlns="http://www.w3.org/2000/svg" xmlns:xlink="http://www.w3.org/1999/xlink" width="1280" height="395" viewBox="0 0 1280 395">
  <defs>
    <linearGradient id="linear-gradient" x1="0.5" x2="0.5" y2="1.067" gradientUnits="objectBoundingBox">
      <stop offset="0" stop-color="#fbb040"/>
      <stop offset="1" stop-color="#ff3527"/>
    </linearGradient>
    <radialGradient id="radial-gradient" cx="0.5" cy="0.5" r="0.5" gradientUnits="objectBoundingBox">
      <stop offset="0" stop-color="#fff"/>
      <stop offset="0" stop-color="#eaeaea"/>
      <stop offset="0.499" stop-color="#fff"/>
      <stop offset="0.5" stop-color="#eaeaea"/>
      <stop offset="1" stop-color="#fff"/>
    </radialGradient>
  </defs>
  <g id="Group_26" data-name="Group 26" transform="translate(-580 623)">
    <rect id="Rectangle_13" data-name="Rectangle 13" width="1280" height="395" transform="translate(580 -623)" fill="none"/>
    <path id="Path_22" data-name="Path 22" d="M14.6,7.336H1.465v11.92H14.52V68.477c0,16.866,4.379,24.651,24.651,24.651a77.356,77.356,0,0,0,10.46-.73V80.64c-1.379.162-4.622.405-6.73.405-10.379,0-13.785-2.595-13.785-12.65V19.256h19.3V7.336h-19.3V-14.072H14.6ZM76.955,92.4H91.713V39.69c0-11.6,7.46-20.6,22.462-20.6a38.322,38.322,0,0,1,6.893.487V6.2a37.714,37.714,0,0,0-5.352-.405c-15.083,0-21.245,8.839-23.354,14.434h-.73V7.092H76.955Zm89.924,1.379c12.569,0,20.272-5.838,24.408-12.731h.649V92.4h14.109V34.176c0-20.921-14.515-28.462-32.111-28.462-19.056,0-30.408,8.109-31.706,22.543h14.191c1.7-5.919,6.244-10.136,17.029-10.136,10.947,0,17.84,5.028,17.84,15.974v8.433h-22.3c-19.623,0-30,10.136-30,25.056C138.985,83.4,150.337,93.776,166.88,93.776Zm4.054-12.325c-8.839,0-16.948-4.46-16.948-14.353,0-7.622,4.7-13.38,16.218-13.38h21.083v9.487C191.287,73.666,182.449,81.451,170.934,81.451ZM236.694-19.18a9.912,9.912,0,0,0,10.3,10.055c6.163,0,10.623-4.217,10.623-10.055,0-5.919-4.46-10.136-10.623-10.136A9.93,9.93,0,0,0,236.694-19.18ZM239.775,92.4h14.677V7.092H239.775Zm49.38,0h14.677V-24.127H289.155Zm87.573,1.3c20.353,0,33.084-14.028,33.084-36.652V42.366c0-22.543-12.569-36.571-32.679-36.571-12.326,0-22.462,5.919-25.138,14.839h-.73V-24.127H336.589V92.4H350.7V79.748h.73C355.239,88.506,364.727,93.7,376.728,93.7ZM373.89,81.127c-13.136,0-22.624-9.731-22.624-23.516V43.582c0-15.488,8.6-25.219,22.218-25.219,13.7,0,21.57,9.893,21.57,27.084v9.082C395.054,71.4,387.269,81.127,373.89,81.127ZM438.352,92.4h14.677V-24.127H438.352Zm70.382,1.379c12.569,0,20.272-5.838,24.408-12.731h.649V92.4H547.9V34.176c0-20.921-14.515-28.462-32.111-28.462-19.056,0-30.408,8.109-31.706,22.543h14.191c1.7-5.919,6.244-10.136,17.029-10.136,10.947,0,17.84,5.028,17.84,15.974v8.433h-22.3c-19.624,0-30,10.136-30,25.056C480.839,83.4,492.192,93.776,508.734,93.776Zm4.054-12.325c-8.839,0-16.948-4.46-16.948-14.353,0-7.622,4.7-13.38,16.218-13.38h21.083v9.487C533.142,73.666,524.3,81.451,512.788,81.451ZM574.98,92.4H638.8V79.829H593.468V79.1L638.31,17.066V7.092H574.818V19.661h45.248v.811l-45.085,62.2Zm123.252,1.379c21.57,0,31.868-13.38,33.165-22.462H716.315c-1.46,5.271-8.19,10.055-18.164,10.055-14.191,0-21.813-10.3-21.813-23.516v-4.3h56.195v-10.3c0-22.948-14.758-37.544-35.436-37.544-20.434,0-35.355,14.353-35.355,37.544V56.232C661.742,79.262,675.284,93.776,698.232,93.776ZM676.338,42.934V41.555c0-14.191,8.352-23.516,20.84-23.516s20.759,9.325,20.759,23.516v1.379ZM761.4,92.4h14.758V39.69c0-11.6,7.46-20.6,22.462-20.6a38.321,38.321,0,0,1,6.893.487V6.2a37.712,37.712,0,0,0-5.352-.405c-15.083,0-21.245,8.839-23.354,14.434h-.73V7.092H761.4Z" transform="translate(974.535 -457.858)" fill="#ffb44e"/>
    <path id="Path_23" data-name="Path 23" d="M14.6,7.336H1.465v11.92H14.52V68.477c0,16.866,4.379,24.651,24.651,24.651a77.356,77.356,0,0,0,10.46-.73V80.64c-1.379.162-4.622.405-6.73.405-10.379,0-13.785-2.595-13.785-12.65V19.256h19.3V7.336h-19.3V-14.072H14.6ZM76.955,92.4H91.713V39.69c0-11.6,7.46-20.6,22.462-20.6a38.322,38.322,0,0,1,6.893.487V6.2a37.714,37.714,0,0,0-5.352-.405c-15.083,0-21.245,8.839-23.354,14.434h-.73V7.092H76.955Zm89.924,1.379c12.569,0,20.272-5.838,24.408-12.731h.649V92.4h14.109V34.176c0-20.921-14.515-28.462-32.111-28.462-19.056,0-30.408,8.109-31.706,22.543h14.191c1.7-5.919,6.244-10.136,17.029-10.136,10.947,0,17.84,5.028,17.84,15.974v8.433h-22.3c-19.623,0-30,10.136-30,25.056C138.985,83.4,150.337,93.776,166.88,93.776Zm4.054-12.325c-8.839,0-16.948-4.46-16.948-14.353,0-7.622,4.7-13.38,16.218-13.38h21.083v9.487C191.287,73.666,182.449,81.451,170.934,81.451ZM236.694-19.18a9.912,9.912,0,0,0,10.3,10.055c6.163,0,10.623-4.217,10.623-10.055,0-5.919-4.46-10.136-10.623-10.136A9.93,9.93,0,0,0,236.694-19.18ZM239.775,92.4h14.677V7.092H239.775Zm49.38,0h14.677V-24.127H289.155Zm87.573,1.3c20.353,0,33.084-14.028,33.084-36.652V42.366c0-22.543-12.569-36.571-32.679-36.571-12.326,0-22.462,5.919-25.138,14.839h-.73V-24.127H336.589V92.4H350.7V79.748h.73C355.239,88.506,364.727,93.7,376.728,93.7ZM373.89,81.127c-13.136,0-22.624-9.731-22.624-23.516V43.582c0-15.488,8.6-25.219,22.218-25.219,13.7,0,21.57,9.893,21.57,27.084v9.082C395.054,71.4,387.269,81.127,373.89,81.127ZM438.352,92.4h14.677V-24.127H438.352Zm70.382,1.379c12.569,0,20.272-5.838,24.408-12.731h.649V92.4H547.9V34.176c0-20.921-14.515-28.462-32.111-28.462-19.056,0-30.408,8.109-31.706,22.543h14.191c1.7-5.919,6.244-10.136,17.029-10.136,10.947,0,17.84,5.028,17.84,15.974v8.433h-22.3c-19.624,0-30,10.136-30,25.056C480.839,83.4,492.192,93.776,508.734,93.776Zm4.054-12.325c-8.839,0-16.948-4.46-16.948-14.353,0-7.622,4.7-13.38,16.218-13.38h21.083v9.487C533.142,73.666,524.3,81.451,512.788,81.451ZM574.98,92.4H638.8V79.829H593.468V79.1L638.31,17.066V7.092H574.818V19.661h45.248v.811l-45.085,62.2Zm123.252,1.379c21.57,0,31.868-13.38,33.165-22.462H716.315c-1.46,5.271-8.19,10.055-18.164,10.055-14.191,0-21.813-10.3-21.813-23.516v-4.3h56.195v-10.3c0-22.948-14.758-37.544-35.436-37.544-20.434,0-35.355,14.353-35.355,37.544V56.232C661.742,79.262,675.284,93.776,698.232,93.776ZM676.338,42.934V41.555c0-14.191,8.352-23.516,20.84-23.516s20.759,9.325,20.759,23.516v1.379ZM761.4,92.4h14.758V39.69c0-11.6,7.46-20.6,22.462-20.6a38.321,38.321,0,0,1,6.893.487V6.2a37.712,37.712,0,0,0-5.352-.405c-15.083,0-21.245,8.839-23.354,14.434h-.73V7.092H761.4Z" transform="translate(974.535 -457.858)" fill="#ffb44e"/>
    <g id="Component_1_1" data-name="Component 1 – 1" transform="translate(639 -562.832)">
      <rect id="Rectangle_3" data-name="Rectangle 3" width="274.664" height="274.664" rx="60" fill="url(#linear-gradient)"/>
      <path id="Path_10" data-name="Path 10" d="M105.168,22.141A83.028,83.028,0,1,0,188.2,105.168a83.028,83.028,0,0,0-83.028-83.028m0-22.141A105.168,105.168,0,1,1,0,105.168,105.168,105.168,0,0,1,105.168,0Z" transform="translate(33.233 33.233)" fill="url(#radial-gradient)"/>
      <path id="Path_19" data-name="Path 19" d="M0,0" transform="translate(134.492 37.145) rotate(45)" fill="none" stroke="#b5b5b5" stroke-width="1"/>
      <path id="Path_21" data-name="Path 21" d="M0,0" transform="translate(134.492 247.482) rotate(45)" fill="none" stroke="#b5b5b5" stroke-width="1"/>
      <path id="Path_20" data-name="Path 20" d="M0,0" transform="translate(247.482 142.311) rotate(45)" fill="none" stroke="#b5b5b5" stroke-width="1"/>
      <g id="Group_2" data-name="Group 2" transform="translate(127.323 73.486)">
        <path id="Polygon_1" data-name="Polygon 1" d="M11.078,0,22.156,33.233H0Z" transform="translate(22.156 99.7) rotate(180)" fill="#b5b5b5"/>
        <path id="Polygon_2" data-name="Polygon 2" d="M11.078,0,22.156,66.467H0Z" fill="#eaeaea"/>
      </g>
      <rect id="Rectangle_5" data-name="Rectangle 5" width="11.078" height="11.078" transform="translate(130.569 243.57) rotate(-45)" fill="#b5b5b5"/>
      <rect id="Rectangle_6" data-name="Rectangle 6" width="11.078" height="11.078" transform="translate(235.738 138.401) rotate(-45)" fill="#b5b5b5"/>
      <rect id="Rectangle_7" data-name="Rectangle 7" width="11.078" height="11.078" transform="translate(25.401 138.401) rotate(-45)" fill="#b5b5b5"/>
      <rect id="Rectangle_8" data-name="Rectangle 8" width="11.078" height="11.078" transform="translate(130.569 33.233) rotate(-45)" fill="#b5b5b5"/>
    </g>
  </g>
</svg>
