<svg id="Component_2_1" data-name="Component 2 – 1" xmlns="http://www.w3.org/2000/svg" xmlns:xlink="http://www.w3.org/1999/xlink" width="280.181" height="64" viewBox="0 0 280.181 64">
  <defs>
    <linearGradient id="linear-gradient" x1="0.5" x2="0.5" y2="1.067" gradientUnits="objectBoundingBox">
      <stop offset="0" stop-color="#fbb040"/>
      <stop offset="1" stop-color="#ff3527"/>
    </linearGradient>
    <radialGradient id="radial-gradient" cx="0.5" cy="0.5" r="0.5" gradientUnits="objectBoundingBox">
      <stop offset="0" stop-color="#fff"/>
      <stop offset="0" stop-color="#eaeaea"/>
      <stop offset="0.499" stop-color="#fff"/>
      <stop offset="0.5" stop-color="#eaeaea"/>
      <stop offset="1" stop-color="#fff"/>
    </radialGradient>
  </defs>
  <g id="Component_1_1" data-name="Component 1 – 1">
    <rect id="Rectangle_3" data-name="Rectangle 3" width="64" height="64" rx="10" fill="url(#linear-gradient)"/>
    <path id="Path_10" data-name="Path 10" d="M24.509,5.16A19.349,19.349,0,1,0,43.859,24.509,19.349,19.349,0,0,0,24.509,5.16m0-5.16A24.509,24.509,0,1,1,0,24.509,24.509,24.509,0,0,1,24.509,0Z" transform="translate(7.74 7.74)" fill="url(#radial-gradient)"/>
    <path id="Path_19" data-name="Path 19" d="M0,0" transform="translate(31.338 8.651) rotate(45)" fill="none" stroke="#b5b5b5" stroke-width="1"/>
    <path id="Path_21" data-name="Path 21" d="M0,0" transform="translate(31.338 57.669) rotate(45)" fill="none" stroke="#b5b5b5" stroke-width="1"/>
    <path id="Path_20" data-name="Path 20" d="M0,0" transform="translate(57.669 33.16) rotate(45)" fill="none" stroke="#b5b5b5" stroke-width="1"/>
    <g id="Group_2" data-name="Group 2" transform="translate(29.669 17.128)">
      <path id="Polygon_1" data-name="Polygon 1" d="M2.58,0,5.16,7.74H0Z" transform="translate(5.16 23.219) rotate(180)" fill="#b5b5b5"/>
      <path id="Polygon_2" data-name="Polygon 2" d="M2.58,0,5.16,15.48H0Z" fill="#eaeaea"/>
    </g>
    <rect id="Rectangle_5" data-name="Rectangle 5" width="2.58" height="2.58" transform="translate(30.425 56.758) rotate(-45)" fill="#b5b5b5"/>
    <rect id="Rectangle_6" data-name="Rectangle 6" width="2.58" height="2.58" transform="translate(54.934 32.249) rotate(-45)" fill="#b5b5b5"/>
    <rect id="Rectangle_7" data-name="Rectangle 7" width="2.58" height="2.58" transform="translate(5.916 32.249) rotate(-45)" fill="#b5b5b5"/>
    <rect id="Rectangle_8" data-name="Rectangle 8" width="2.58" height="2.58" transform="translate(30.425 7.74) rotate(-45)" fill="#b5b5b5"/>
  </g>
  <path id="Path_22" data-name="Path 22" d="M4.629-20.488H1.465v2.871H4.609V-5.762C4.609-1.7,5.664.176,10.547.176A18.632,18.632,0,0,0,13.066,0V-2.832c-.332.039-1.113.1-1.621.1-2.5,0-3.32-.625-3.32-3.047V-17.617h4.648v-2.871H8.125v-5.156h-3.5ZM19.648,0H23.2V-12.7c0-2.793,1.8-4.961,5.41-4.961a9.23,9.23,0,0,1,1.66.117v-3.223a9.084,9.084,0,0,0-1.289-.1c-3.633,0-5.117,2.129-5.625,3.477h-.176v-3.164H19.648ZM41.307.332a6.458,6.458,0,0,0,5.879-3.066h.156V0h3.4V-14.023c0-5.039-3.5-6.855-7.734-6.855-4.59,0-7.324,1.953-7.637,5.43h3.418c.41-1.426,1.5-2.441,4.1-2.441,2.637,0,4.3,1.211,4.3,3.848v2.031H41.815c-4.727,0-7.227,2.441-7.227,6.035C34.588-2.168,37.323.332,41.307.332Zm.977-2.969c-2.129,0-4.082-1.074-4.082-3.457,0-1.836,1.133-3.223,3.906-3.223h5.078v2.285C47.186-4.512,45.057-2.637,42.284-2.637ZM58.123-26.875a2.387,2.387,0,0,0,2.48,2.422,2.408,2.408,0,0,0,2.559-2.422A2.412,2.412,0,0,0,60.6-29.316,2.392,2.392,0,0,0,58.123-26.875ZM58.865,0H62.4V-20.547H58.865ZM70.759,0h3.535V-28.066H70.759ZM91.852.313c4.9,0,7.969-3.379,7.969-8.828v-3.535c0-5.43-3.027-8.809-7.871-8.809-2.969,0-5.41,1.426-6.055,3.574h-.176V-28.066H82.184V0h3.4V-3.047h.176C86.676-.937,88.961.313,91.852.313Zm-.684-3.027a5.352,5.352,0,0,1-5.449-5.664v-3.379c0-3.73,2.07-6.074,5.352-6.074,3.3,0,5.2,2.383,5.2,6.523v2.188C96.266-5.059,94.391-2.715,91.168-2.715ZM106.695,0h3.535V-28.066h-3.535Zm16.952.332a6.458,6.458,0,0,0,5.879-3.066h.156V0h3.4V-14.023c0-5.039-3.5-6.855-7.734-6.855-4.59,0-7.324,1.953-7.637,5.43h3.418c.41-1.426,1.5-2.441,4.1-2.441,2.637,0,4.3,1.211,4.3,3.848v2.031h-5.371c-4.727,0-7.227,2.441-7.227,6.035C116.928-2.168,119.662.332,123.647.332Zm.977-2.969c-2.129,0-4.082-1.074-4.082-3.457,0-1.836,1.133-3.223,3.906-3.223h5.078v2.285C129.526-4.512,127.4-2.637,124.623-2.637ZM139.6,0h15.371V-3.027H144.056V-3.2l10.8-14.941v-2.4H139.564v3.027h10.9v.2L139.6-2.344ZM169.29.332c5.2,0,7.676-3.223,7.988-5.41h-3.633c-.352,1.27-1.973,2.422-4.375,2.422-3.418,0-5.254-2.48-5.254-5.664V-9.355h13.535v-2.48c0-5.527-3.555-9.043-8.535-9.043-4.922,0-8.516,3.457-8.516,9.043v3.125C160.5-3.164,163.762.332,169.29.332Zm-5.273-12.246v-.332c0-3.418,2.012-5.664,5.02-5.664s5,2.246,5,5.664v.332ZM184.5,0h3.555V-12.7c0-2.793,1.8-4.961,5.41-4.961a9.23,9.23,0,0,1,1.66.117v-3.223a9.084,9.084,0,0,0-1.289-.1c-3.633,0-5.117,2.129-5.625,3.477h-.176v-3.164H184.5Z" transform="translate(85.052 46)" fill="#ffb44e"/>
</svg>
